<svg width="61" height="61" viewBox="0 0 61 61" fill="none" xmlns="http://www.w3.org/2000/svg">
<g clip-path="url(#clip0_17_6)">
<path d="M12.3949 31.7627V31.2922L12.0622 31.6249L11.171 32.5161C11.1706 32.5165 11.1702 32.5169 11.1698 32.5173C10.6315 33.0367 9.91077 33.3239 9.16271 33.3175C8.41411 33.3111 7.69801 33.0107 7.16863 32.4814C6.63928 31.9521 6.33901 31.2359 6.33251 30.4873C6.32602 29.7394 6.61334 29.0187 7.1327 28.4802L28.4814 7.13149C28.4816 7.13147 28.4816 7.13147 28.4816 7.13147C29.0169 6.59623 29.7429 6.29553 30.5 6.29553C31.2572 6.29553 31.9831 6.59623 32.5185 7.13147C32.5187 7.13147 32.5187 7.13147 32.5187 7.13149L53.8661 28.479C53.8665 28.4794 53.8669 28.4798 53.8673 28.4802C54.3867 29.0185 54.6741 29.7394 54.6675 30.4873C54.6611 31.2359 54.3608 31.9521 53.8315 32.4814C53.3021 33.0107 52.5859 33.3111 51.8374 33.3175C51.0892 33.3239 50.3685 33.0367 49.8302 32.5173C49.8298 32.5169 49.8294 32.5165 49.829 32.5161L48.9378 31.6249L48.6051 31.2922V31.7627V51.85C48.6051 52.6071 48.3044 53.3335 47.7689 53.8689C47.2335 54.4044 46.5072 54.7051 45.75 54.7051H39.65C38.8929 54.7051 38.1665 54.4044 37.6312 53.8689C37.0958 53.3335 36.7949 52.6071 36.7949 51.85V45.75C36.7949 44.8894 36.4531 44.064 35.8444 43.4556C35.236 42.847 34.4106 42.5051 33.55 42.5051H27.45C26.5894 42.5051 25.764 42.847 25.1556 43.4556C24.547 44.064 24.2051 44.8894 24.2051 45.75V51.85C24.2051 52.6071 23.9044 53.3335 23.3689 53.8689C22.8335 54.4044 22.1072 54.7051 21.35 54.7051H15.25C14.4928 54.7051 13.7666 54.4044 13.2312 53.8689C12.6957 53.3335 12.3949 52.6071 12.3949 51.85V31.7627Z" fill="#046C4E" stroke="#FAFAFA" stroke-width="0.5"/>
<path d="M37.1246 31.0418V30.7261C37.5924 30.7074 37.9034 30.6583 38.0578 30.5788C38.2963 30.4571 38.446 30.1905 38.5068 29.7789H38.8646V34.6901H38.4226V31.0418H37.1246Z" fill="#FAFAFA"/>
<path d="M37.1246 36.4987V36.1829C37.5924 36.1642 37.9034 36.1151 38.0578 36.0356C38.2963 35.914 38.446 35.6474 38.5068 35.2358H38.8646V40.147H38.4226V36.4987H37.1246Z" fill="#FAFAFA"/>
<path d="M37.1246 41.9555V41.6398C37.5924 41.6211 37.9034 41.572 38.0578 41.4924C38.2963 41.3708 38.446 41.1042 38.5068 40.6926H38.8646V45.6038H38.4226V41.9555H37.1246Z" fill="#FAFAFA"/>
<path d="M45.3099 31.0418V30.7261C45.7777 30.7074 46.0887 30.6583 46.2431 30.5788C46.4816 30.4571 46.6313 30.1905 46.6921 29.7789H47.0499V34.6901H46.6079V31.0418H45.3099Z" fill="#FAFAFA"/>
<path d="M45.3099 36.4987V36.1829C45.7777 36.1642 46.0887 36.1151 46.2431 36.0356C46.4816 35.914 46.6313 35.6474 46.6921 35.2358H47.0499V40.147H46.6079V36.4987H45.3099Z" fill="#FAFAFA"/>
<path d="M45.3099 41.9555V41.6398C45.7777 41.6211 46.0887 41.572 46.2431 41.4924C46.4816 41.3708 46.6313 41.1042 46.6921 40.6926H47.0499V45.6038H46.6079V41.9555H45.3099Z" fill="#FAFAFA"/>
<path d="M42.4872 30.1087C41.6406 30.1087 41.2173 30.8266 41.2173 32.2626C41.2173 33.7032 41.6406 34.4235 42.4872 34.4235C43.3338 34.4235 43.7571 33.7032 43.7571 32.2626C43.7571 30.8266 43.3338 30.1087 42.4872 30.1087ZM42.4872 29.7368C43.6284 29.7368 44.1991 30.5787 44.1991 32.2626C44.1991 33.9511 43.6284 34.7953 42.4872 34.7953C41.3459 34.7953 40.7753 33.9534 40.7753 32.2696C40.7753 30.5811 41.3459 29.7368 42.4872 29.7368Z" fill="#FAFAFA"/>
<path d="M42.4872 35.5655C41.6406 35.5655 41.2173 36.2835 41.2173 37.7194C41.2173 39.16 41.6406 39.8803 42.4872 39.8803C43.3338 39.8803 43.7571 39.16 43.7571 37.7194C43.7571 36.2835 43.3338 35.5655 42.4872 35.5655ZM42.4872 35.1937C43.6284 35.1937 44.1991 36.0356 44.1991 37.7194C44.1991 39.4079 43.6284 40.2522 42.4872 40.2522C41.3459 40.2522 40.7753 39.4103 40.7753 37.7264C40.7753 36.0379 41.3459 35.1937 42.4872 35.1937Z" fill="#FAFAFA"/>
<path d="M42.4872 41.0224C41.6406 41.0224 41.2173 41.7404 41.2173 43.1763C41.2173 44.6169 41.6406 45.3373 42.4872 45.3373C43.3338 45.3373 43.7571 44.6169 43.7571 43.1763C43.7571 41.7404 43.3338 41.0224 42.4872 41.0224ZM42.4872 40.6506C43.6284 40.6506 44.1991 41.4925 44.1991 43.1763C44.1991 44.8648 43.6284 45.7091 42.4872 45.7091C41.3459 45.7091 40.7753 44.8672 40.7753 43.1833C40.7753 41.4948 41.3459 40.6506 42.4872 40.6506Z" fill="#FAFAFA"/>
<path d="M34.4968 30.1087C33.6502 30.1087 33.2269 30.8266 33.2269 32.2626C33.2269 33.7032 33.6502 34.4235 34.4968 34.4235C35.3433 34.4235 35.7666 33.7032 35.7666 32.2626C35.7666 30.8266 35.3433 30.1087 34.4968 30.1087ZM34.4968 29.7368C35.638 29.7368 36.2087 30.5787 36.2087 32.2626C36.2087 33.9511 35.638 34.7953 34.4968 34.7953C33.3555 34.7953 32.7849 33.9534 32.7849 32.2696C32.7849 30.5811 33.3555 29.7368 34.4968 29.7368Z" fill="#FAFAFA"/>
<path d="M34.3019 35.5655C33.4553 35.5655 33.032 36.2835 33.032 37.7194C33.032 39.16 33.4553 39.8803 34.3019 39.8803C35.1485 39.8803 35.5717 39.16 35.5717 37.7194C35.5717 36.2835 35.1485 35.5655 34.3019 35.5655ZM34.3019 35.1937C35.4431 35.1937 36.0138 36.0356 36.0138 37.7194C36.0138 39.4079 35.4431 40.2522 34.3019 40.2522C33.1606 40.2522 32.59 39.4103 32.59 37.7264C32.59 36.0379 33.1606 35.1937 34.3019 35.1937Z" fill="#FAFAFA"/>
<path d="M51.1473 42.4634L51.0518 42.5975L51.1683 42.714L60.3261 51.8712L60.3271 51.8724C60.6373 52.1942 60.809 52.6249 60.8051 53.0717C60.8012 53.5192 60.6217 53.9472 60.3053 54.2637C59.9888 54.5802 59.5608 54.7597 59.1133 54.7636C58.6662 54.7675 58.2357 54.5958 57.914 54.2857L57.9128 54.2845L48.757 45.1291L48.6404 45.0125L48.5061 45.108C46.8283 46.3011 44.8545 47.0091 42.801 47.1549C40.7474 47.3007 38.6933 46.8782 36.8639 45.9341C35.0345 44.9899 33.5001 43.5606 32.4292 41.8023C31.3583 40.0442 30.792 38.0252 30.7924 35.9666C30.7922 34.2015 31.2084 32.4615 32.0077 30.8878C32.8067 29.3141 33.9659 27.9512 35.3911 26.9101C36.8164 25.8689 38.4673 25.1788 40.2094 24.8958C41.9515 24.6128 43.7359 24.7451 45.4174 25.2819C47.0988 25.8186 48.6299 26.7445 49.8859 27.9844C51.142 29.2242 52.0878 30.7432 52.6461 32.4175C53.2045 34.0918 53.3596 35.8742 53.0993 37.6198C52.8389 39.3654 52.17 41.0249 51.1473 42.4634ZM42.0072 28.1656C39.9381 28.1656 37.9539 28.9875 36.4909 30.4503C35.0277 31.9133 34.2058 33.8977 34.2058 35.9666C34.2058 38.0355 35.0277 40.0197 36.4909 41.4827C37.9539 42.9457 39.9381 43.7676 42.0072 43.7676C44.0763 43.7676 46.0605 42.9457 47.5235 41.4827C48.9865 40.0197 49.8086 38.0355 49.8086 35.9666C49.8086 33.8977 48.9865 31.9133 47.5235 30.4503C46.0605 28.9875 44.0763 28.1656 42.0072 28.1656Z" fill="#046C4E" stroke="#FAFAFA" stroke-width="0.5"/>
</g>
<defs>
<clipPath id="clip0_17_6">
<rect width="61" height="61" fill="white"/>
</clipPath>
</defs>
</svg>
